<svg xmlns="http://www.w3.org/2000/svg" viewBox="0 0 512 512" fill="none">
  <rect width="512" height="512" rx="96" fill="#7c5cbb"/>
  <g transform="translate(256 256)">
    <!-- Стебло -->
    <path d="M0 60 L0 180" stroke="#a3e635" stroke-width="14" stroke-linecap="round"/>
    <!-- Листя -->
    <path d="M-2 130 Q-50 110 -60 70" stroke="#84cc16" stroke-width="10" stroke-linecap="round" fill="none"/>
    <path d="M2 130 Q50 110 60 70" stroke="#84cc16" stroke-width="10" stroke-linecap="round" fill="none"/>
    <!-- Суцвіття: серія овалів -->
    <g fill="#e9d5ff">
      <ellipse cx="0" cy="-130" rx="22" ry="32"/>
      <ellipse cx="-30" cy="-100" rx="18" ry="26"/>
      <ellipse cx="30" cy="-100" rx="18" ry="26"/>
      <ellipse cx="-15" cy="-60" rx="20" ry="28"/>
      <ellipse cx="15" cy="-60" rx="20" ry="28"/>
      <ellipse cx="-40" cy="-30" rx="16" ry="24"/>
      <ellipse cx="40" cy="-30" rx="16" ry="24"/>
      <ellipse cx="0" cy="-15" rx="18" ry="26"/>
    </g>
    <!-- Темніші тіні -->
    <g fill="#c4b5fd" opacity="0.6">
      <ellipse cx="0" cy="-130" rx="10" ry="20"/>
      <ellipse cx="-30" cy="-100" rx="8" ry="16"/>
      <ellipse cx="30" cy="-100" rx="8" ry="16"/>
    </g>
  </g>
</svg>
